<mxfile host="app.diagrams.net" agent="Mozilla/5.0 (Macintosh; Intel Mac OS X 10_15_7) AppleWebKit/537.36 (KHTML, like Gecko) Chrome/128.0.0.0 Safari/537.36" version="24.7.7">
  <diagram name="第 1 页" id="97eqItnOxSmBkpqGbD8Z">
    <mxGraphModel dx="954" dy="521" grid="1" gridSize="10" guides="1" tooltips="1" connect="1" arrows="1" fold="1" page="1" pageScale="1" pageWidth="827" pageHeight="1169" math="0" shadow="0">
      <root>
        <mxCell id="0" />
        <mxCell id="1" parent="0" />
        <mxCell id="0eUicsOPKXAcuNzzF6oo-9" value="" style="edgeStyle=orthogonalEdgeStyle;rounded=0;orthogonalLoop=1;jettySize=auto;html=1;" edge="1" parent="1" source="0eUicsOPKXAcuNzzF6oo-1" target="0eUicsOPKXAcuNzzF6oo-8">
          <mxGeometry relative="1" as="geometry" />
        </mxCell>
        <mxCell id="0eUicsOPKXAcuNzzF6oo-1" value="原始数据" style="rounded=1;whiteSpace=wrap;html=1;" vertex="1" parent="1">
          <mxGeometry x="300" y="30" width="120" height="60" as="geometry" />
        </mxCell>
        <mxCell id="0eUicsOPKXAcuNzzF6oo-15" style="edgeStyle=orthogonalEdgeStyle;rounded=0;orthogonalLoop=1;jettySize=auto;html=1;exitX=0.5;exitY=1;exitDx=0;exitDy=0;entryX=0.5;entryY=0;entryDx=0;entryDy=0;" edge="1" parent="1" source="0eUicsOPKXAcuNzzF6oo-8" target="0eUicsOPKXAcuNzzF6oo-10">
          <mxGeometry relative="1" as="geometry" />
        </mxCell>
        <mxCell id="0eUicsOPKXAcuNzzF6oo-16" style="edgeStyle=orthogonalEdgeStyle;rounded=0;orthogonalLoop=1;jettySize=auto;html=1;exitX=0.5;exitY=1;exitDx=0;exitDy=0;" edge="1" parent="1" source="0eUicsOPKXAcuNzzF6oo-8" target="0eUicsOPKXAcuNzzF6oo-11">
          <mxGeometry relative="1" as="geometry" />
        </mxCell>
        <mxCell id="0eUicsOPKXAcuNzzF6oo-17" style="edgeStyle=orthogonalEdgeStyle;rounded=0;orthogonalLoop=1;jettySize=auto;html=1;exitX=0.5;exitY=1;exitDx=0;exitDy=0;" edge="1" parent="1" source="0eUicsOPKXAcuNzzF6oo-8" target="0eUicsOPKXAcuNzzF6oo-12">
          <mxGeometry relative="1" as="geometry" />
        </mxCell>
        <mxCell id="0eUicsOPKXAcuNzzF6oo-18" style="edgeStyle=orthogonalEdgeStyle;rounded=0;orthogonalLoop=1;jettySize=auto;html=1;exitX=0.5;exitY=1;exitDx=0;exitDy=0;entryX=0.5;entryY=0;entryDx=0;entryDy=0;" edge="1" parent="1" source="0eUicsOPKXAcuNzzF6oo-8" target="0eUicsOPKXAcuNzzF6oo-13">
          <mxGeometry relative="1" as="geometry" />
        </mxCell>
        <mxCell id="0eUicsOPKXAcuNzzF6oo-8" value="预处理" style="rounded=0;whiteSpace=wrap;html=1;" vertex="1" parent="1">
          <mxGeometry x="300" y="130" width="120" height="60" as="geometry" />
        </mxCell>
        <mxCell id="0eUicsOPKXAcuNzzF6oo-23" value="" style="edgeStyle=orthogonalEdgeStyle;rounded=0;orthogonalLoop=1;jettySize=auto;html=1;" edge="1" parent="1" source="0eUicsOPKXAcuNzzF6oo-10" target="0eUicsOPKXAcuNzzF6oo-19">
          <mxGeometry relative="1" as="geometry" />
        </mxCell>
        <mxCell id="0eUicsOPKXAcuNzzF6oo-10" value="问题一" style="shape=process;whiteSpace=wrap;html=1;backgroundOutline=1;" vertex="1" parent="1">
          <mxGeometry x="60" y="260" width="120" height="60" as="geometry" />
        </mxCell>
        <mxCell id="0eUicsOPKXAcuNzzF6oo-24" value="" style="edgeStyle=orthogonalEdgeStyle;rounded=0;orthogonalLoop=1;jettySize=auto;html=1;" edge="1" parent="1" source="0eUicsOPKXAcuNzzF6oo-11" target="0eUicsOPKXAcuNzzF6oo-20">
          <mxGeometry relative="1" as="geometry" />
        </mxCell>
        <mxCell id="0eUicsOPKXAcuNzzF6oo-11" value="问题二" style="shape=process;whiteSpace=wrap;html=1;backgroundOutline=1;" vertex="1" parent="1">
          <mxGeometry x="220" y="260" width="120" height="60" as="geometry" />
        </mxCell>
        <mxCell id="0eUicsOPKXAcuNzzF6oo-25" value="" style="edgeStyle=orthogonalEdgeStyle;rounded=0;orthogonalLoop=1;jettySize=auto;html=1;" edge="1" parent="1" source="0eUicsOPKXAcuNzzF6oo-12" target="0eUicsOPKXAcuNzzF6oo-21">
          <mxGeometry relative="1" as="geometry" />
        </mxCell>
        <mxCell id="0eUicsOPKXAcuNzzF6oo-12" value="问题三" style="shape=process;whiteSpace=wrap;html=1;backgroundOutline=1;" vertex="1" parent="1">
          <mxGeometry x="380" y="260" width="120" height="60" as="geometry" />
        </mxCell>
        <mxCell id="0eUicsOPKXAcuNzzF6oo-26" value="" style="edgeStyle=orthogonalEdgeStyle;rounded=0;orthogonalLoop=1;jettySize=auto;html=1;" edge="1" parent="1" source="0eUicsOPKXAcuNzzF6oo-13" target="0eUicsOPKXAcuNzzF6oo-22">
          <mxGeometry relative="1" as="geometry" />
        </mxCell>
        <mxCell id="0eUicsOPKXAcuNzzF6oo-13" value="问题四" style="shape=process;whiteSpace=wrap;html=1;backgroundOutline=1;" vertex="1" parent="1">
          <mxGeometry x="540" y="260" width="120" height="60" as="geometry" />
        </mxCell>
        <mxCell id="0eUicsOPKXAcuNzzF6oo-32" value="" style="edgeStyle=orthogonalEdgeStyle;rounded=0;orthogonalLoop=1;jettySize=auto;html=1;" edge="1" parent="1" source="0eUicsOPKXAcuNzzF6oo-19" target="0eUicsOPKXAcuNzzF6oo-27">
          <mxGeometry relative="1" as="geometry" />
        </mxCell>
        <mxCell id="0eUicsOPKXAcuNzzF6oo-19" value="" style="rounded=0;whiteSpace=wrap;html=1;" vertex="1" parent="1">
          <mxGeometry x="60" y="360" width="120" height="60" as="geometry" />
        </mxCell>
        <mxCell id="0eUicsOPKXAcuNzzF6oo-33" value="" style="edgeStyle=orthogonalEdgeStyle;rounded=0;orthogonalLoop=1;jettySize=auto;html=1;" edge="1" parent="1" source="0eUicsOPKXAcuNzzF6oo-20" target="0eUicsOPKXAcuNzzF6oo-28">
          <mxGeometry relative="1" as="geometry" />
        </mxCell>
        <mxCell id="0eUicsOPKXAcuNzzF6oo-20" value="" style="rounded=0;whiteSpace=wrap;html=1;" vertex="1" parent="1">
          <mxGeometry x="220" y="360" width="120" height="60" as="geometry" />
        </mxCell>
        <mxCell id="0eUicsOPKXAcuNzzF6oo-34" value="" style="edgeStyle=orthogonalEdgeStyle;rounded=0;orthogonalLoop=1;jettySize=auto;html=1;" edge="1" parent="1" source="0eUicsOPKXAcuNzzF6oo-21" target="0eUicsOPKXAcuNzzF6oo-29">
          <mxGeometry relative="1" as="geometry" />
        </mxCell>
        <mxCell id="0eUicsOPKXAcuNzzF6oo-21" value="" style="rounded=0;whiteSpace=wrap;html=1;" vertex="1" parent="1">
          <mxGeometry x="380" y="360" width="120" height="60" as="geometry" />
        </mxCell>
        <mxCell id="0eUicsOPKXAcuNzzF6oo-35" value="" style="edgeStyle=orthogonalEdgeStyle;rounded=0;orthogonalLoop=1;jettySize=auto;html=1;" edge="1" parent="1" source="0eUicsOPKXAcuNzzF6oo-22" target="0eUicsOPKXAcuNzzF6oo-30">
          <mxGeometry relative="1" as="geometry" />
        </mxCell>
        <mxCell id="0eUicsOPKXAcuNzzF6oo-22" value="" style="rounded=0;whiteSpace=wrap;html=1;" vertex="1" parent="1">
          <mxGeometry x="540" y="360" width="120" height="60" as="geometry" />
        </mxCell>
        <mxCell id="0eUicsOPKXAcuNzzF6oo-36" style="edgeStyle=orthogonalEdgeStyle;rounded=0;orthogonalLoop=1;jettySize=auto;html=1;exitX=0.5;exitY=1;exitDx=0;exitDy=0;" edge="1" parent="1" source="0eUicsOPKXAcuNzzF6oo-27" target="0eUicsOPKXAcuNzzF6oo-31">
          <mxGeometry relative="1" as="geometry" />
        </mxCell>
        <mxCell id="0eUicsOPKXAcuNzzF6oo-27" value="" style="rounded=0;whiteSpace=wrap;html=1;" vertex="1" parent="1">
          <mxGeometry x="60" y="460" width="120" height="60" as="geometry" />
        </mxCell>
        <mxCell id="0eUicsOPKXAcuNzzF6oo-37" style="edgeStyle=orthogonalEdgeStyle;rounded=0;orthogonalLoop=1;jettySize=auto;html=1;exitX=0.5;exitY=1;exitDx=0;exitDy=0;entryX=0.5;entryY=0;entryDx=0;entryDy=0;" edge="1" parent="1" source="0eUicsOPKXAcuNzzF6oo-28" target="0eUicsOPKXAcuNzzF6oo-31">
          <mxGeometry relative="1" as="geometry" />
        </mxCell>
        <mxCell id="0eUicsOPKXAcuNzzF6oo-28" value="" style="rounded=0;whiteSpace=wrap;html=1;" vertex="1" parent="1">
          <mxGeometry x="220" y="460" width="120" height="60" as="geometry" />
        </mxCell>
        <mxCell id="0eUicsOPKXAcuNzzF6oo-38" style="edgeStyle=orthogonalEdgeStyle;rounded=0;orthogonalLoop=1;jettySize=auto;html=1;exitX=0.5;exitY=1;exitDx=0;exitDy=0;" edge="1" parent="1" source="0eUicsOPKXAcuNzzF6oo-29">
          <mxGeometry relative="1" as="geometry">
            <mxPoint x="360" y="600" as="targetPoint" />
          </mxGeometry>
        </mxCell>
        <mxCell id="0eUicsOPKXAcuNzzF6oo-29" value="" style="rounded=0;whiteSpace=wrap;html=1;" vertex="1" parent="1">
          <mxGeometry x="380" y="460" width="120" height="60" as="geometry" />
        </mxCell>
        <mxCell id="0eUicsOPKXAcuNzzF6oo-39" style="edgeStyle=orthogonalEdgeStyle;rounded=0;orthogonalLoop=1;jettySize=auto;html=1;exitX=0.5;exitY=1;exitDx=0;exitDy=0;entryX=0.5;entryY=0;entryDx=0;entryDy=0;" edge="1" parent="1" source="0eUicsOPKXAcuNzzF6oo-30" target="0eUicsOPKXAcuNzzF6oo-31">
          <mxGeometry relative="1" as="geometry" />
        </mxCell>
        <mxCell id="0eUicsOPKXAcuNzzF6oo-30" value="" style="rounded=0;whiteSpace=wrap;html=1;" vertex="1" parent="1">
          <mxGeometry x="540" y="460" width="120" height="60" as="geometry" />
        </mxCell>
        <mxCell id="0eUicsOPKXAcuNzzF6oo-31" value="结论" style="rounded=1;whiteSpace=wrap;html=1;" vertex="1" parent="1">
          <mxGeometry x="300" y="600" width="120" height="60" as="geometry" />
        </mxCell>
      </root>
    </mxGraphModel>
  </diagram>
</mxfile>
